{"glyphs":{"0":{"ha":813,"x_min":0,"x_max":0,"o":"m 613 -419 z m 372 972 b 310 -503 -10 843 -156 -390 b 614 -422 417 -529 536 -501 b 372 972 929 -97 779 1111 z m 400 -424 b 433 881 211 -414 261 881 b 400 -424 608 879 543 -431 z "},"1":{"ha":554,"x_min":0,"x_max":0,"o":"m 94 551 b 194 553 122 551 158 553 b 257 -460 185 261 186 -185 b 472 -447 288 -575 472 -522 b 521 928 469 569 514 886 b 231 949 478 1010 290 1008 b 26 728 94 813 26 749 b 94 551 26 707 13 549 z "},"2":{"ha":828,"x_min":0,"x_max":0,"o":"m 785 -337 b 350 -337 689 -308 503 -322 b 778 540 581 -72 751 190 b 224 967 813 1015 394 1069 b 99 239 106 896 -94 551 b 208 256 115 210 222 213 b 379 886 115 531 242 833 b 478 468 504 804 497 614 b 61 -353 440 171 329 -64 b 115 -524 13 -406 79 -526 b 758 -508 564 -490 674 -497 b 785 -337 775 -511 832 -353 z "},"3":{"ha":803,"x_min":0,"x_max":0,"o":"m 151 349 b 357 871 140 515 224 808 b 193 165 500 704 319 347 b 365 92 138 85 397 85 b 533 -239 475 69 575 -87 b 133 -332 464 -496 208 -339 b 93 -404 124 -331 85 -381 b 740 -265 139 -540 592 -603 b 501 197 838 -42 710 139 b 654 842 638 382 753 613 b 281 985 589 989 425 1028 b 19 361 74 921 -40 608 b 151 349 31 317 154 301 z "},"4":{"ha":857,"x_min":0,"x_max":0,"o":"m 539 -447 b 779 -462 542 -547 778 -542 b 826 940 793 490 825 822 b 629 943 828 992 651 1024 b 536 63 567 718 546 296 b 396 29 485 33 425 22 b 325 943 190 79 333 849 b 138 961 319 1000 156 1004 b 369 -92 97 863 -165 -74 b 532 -69 425 -93 481 -87 b 539 -447 531 -167 536 -350 z "},"5":{"ha":813,"x_min":0,"x_max":0,"o":"m 96 -467 b 342 -510 156 -524 263 -518 b 324 536 889 -449 996 578 b 328 833 326 575 335 767 b 778 871 429 829 683 832 b 778 953 792 876 796 942 b 19 911 719 989 21 1022 b 56 625 19 824 94 989 b 276 408 19 294 232 369 b 468 -6 457 413 503 171 b 211 -411 388 -422 146 -410 b 96 -467 192 -415 46 -418 z "},"6":{"ha":861,"x_min":0,"x_max":0,"o":"m 725 -408 b 454 132 901 -194 804 176 b 304 79 401 125 349 107 b 490 892 285 453 389 889 b 589 390 563 894 599 451 b 794 407 575 296 767 308 b 492 979 833 528 763 971 b 36 269 251 988 54 514 b 304 -489 17 18 35 -367 b 725 -408 442 -551 625 -528 z m 472 -378 b 333 -137 399 -371 339 -276 b 492 26 347 -42 453 26 b 472 -378 682 26 632 -393 z "},"7":{"ha":813,"x_min":0,"x_max":0,"o":"m 754 960 b 32 961 647 981 136 1003 b 82 815 -6 946 60 831 b 499 811 122 799 497 811 b 104 -451 697 806 124 171 b 426 -467 103 -517 417 -543 b 772 747 486 26 715 549 b 754 960 799 842 778 956 z "},"8":{"ha":822,"x_min":0,"x_max":0,"o":"m 575 -485 z m 799 -157 b 525 114 763 25 579 72 b 717 507 617 190 696 382 b 594 928 740 649 721 835 b 126 858 453 1031 235 993 b 314 83 -54 635 71 238 b 61 -100 211 57 114 -18 b 122 -461 -17 -224 -12 -382 b 579 -478 257 -539 439 -531 b 799 -157 708 -428 829 -307 z m 251 719 b 353 875 269 779 301 839 b 460 865 396 906 422 901 b 540 510 551 779 558 626 b 413 199 522 399 475 292 b 324 310 378 232 349 269 b 251 719 250 429 210 582 z m 382 -425 b 382 8 172 -424 192 -97 b 421 25 394 15 408 19 b 635 -175 472 4 618 -39 b 382 -425 651 -311 513 -426 z "},"9":{"ha":886,"x_min":0,"x_max":0,"o":"m 213 -440 l 214 -440 l 213 -440 z m 611 319 l 613 319 l 611 319 z m 314 -518 b 492 964 1013 -279 971 819 b 122 875 365 1001 215 972 b 144 231 -36 708 -24 386 b 567 151 253 129 428 110 b 569 151 568 151 568 151 b 214 -439 500 -176 301 -346 b 314 -518 171 -483 294 -525 z m 492 232 b 294 833 254 135 81 619 b 374 883 313 851 346 883 b 610 317 428 883 657 731 b 492 232 574 283 538 250 z "},"\u0000":{"ha":0,"x_min":0,"x_max":0,"o":""}," ":{"ha":347,"x_min":0,"x_max":0,"o":""},"!":{"ha":513,"x_min":0,"x_max":0,"o":"m 351 -426 z m 322 -394 b 93 -421 251 -364 157 -379 b 83 -458 82 -429 75 -446 b 350 -431 126 -524 340 -472 b 322 -394 354 -412 339 -401 z m 168 892 b 103 -250 33 681 38 -39 b 253 -237 117 -292 247 -283 b 444 874 232 -279 351 692 b 168 892 490 961 238 1001 z "},"\"":{"ha":368,"x_min":0,"x_max":0,"o":"m 53 1085 b 49 992 11 1043 32 1003 b 100 997 57 986 100 997 b 46 901 108 992 79 907 b 88 869 46 901 56 868 b 161 1058 118 872 194 981 b 53 1085 128 1136 53 1085 z m 213 1075 b 199 994 172 1044 185 1007 b 243 993 204 989 243 993 b 183 917 249 986 213 918 b 215 885 183 917 188 888 b 303 1038 242 882 321 965 b 213 1075 285 1108 213 1075 z "},"#":{"ha":1050,"x_min":0,"x_max":0,"o":"m 978 335 b 844 340 933 338 889 339 b 911 668 892 510 922 647 b 768 674 886 708 800 699 b 642 340 747 657 696 515 b 496 333 588 339 549 338 b 546 567 531 457 554 554 b 357 500 528 594 415 636 b 286 315 338 453 313 389 b 126 276 231 311 169 307 b 154 228 99 256 136 233 b 254 222 186 221 219 221 b 197 42 233 163 214 101 b 24 8 114 35 47 24 b 36 -33 3 -6 19 -28 b 175 -46 79 -50 128 -50 b 144 -229 157 -117 146 -181 b 315 -237 143 -286 297 -278 b 382 -37 321 -226 347 -146 b 531 -39 439 -37 474 -37 b 460 -331 493 -178 464 -293 b 628 -339 453 -385 610 -378 b 731 -46 644 -303 685 -186 b 885 -43 782 -47 833 -49 b 914 31 919 -40 951 21 b 760 49 867 42 813 47 b 819 250 779 115 800 183 b 956 249 864 249 910 249 b 978 335 979 249 1044 329 z m 557 53 b 411 51 514 53 463 53 b 469 242 431 113 450 179 b 614 249 533 246 575 247 b 557 53 594 183 575 117 z "},"$":{"ha":769,"x_min":0,"x_max":0,"o":"m 382 153 b 390 638 381 324 383 500 b 440 325 458 585 457 435 b 650 324 426 225 603 203 b 399 746 744 518 633 729 b 411 846 401 785 406 819 b 293 847 418 886 304 900 b 278 738 288 815 282 778 b 3 431 107 706 6 579 b 279 61 -3 239 143 138 b 301 -215 286 -39 293 -135 b 128 -82 231 -197 167 -151 b -10 -189 69 22 -56 -89 b 317 -358 35 -267 143 -346 b 339 -478 325 -422 332 -465 b 407 -475 343 -492 403 -500 b 394 -360 403 -464 399 -422 b 707 -110 563 -350 707 -258 b 382 153 707 25 531 78 z m 183 360 b 271 644 174 432 178 596 b 272 219 265 517 267 368 b 183 360 225 257 190 301 z m 500 -154 b 389 -222 485 -190 443 -217 b 383 3 386 -156 385 -78 b 500 -154 468 -44 525 -90 z "},"%":{"ha":958,"x_min":0,"x_max":0,"o":"m 906 638 l 907 638 l 906 638 z m 718 -368 l 719 -368 l 718 -368 z m 257 301 b 251 749 432 317 456 749 b 257 301 65 749 96 288 z m 243 358 b 238 679 182 351 179 675 b 243 358 325 683 294 358 z m 708 158 b 714 -360 493 158 528 -375 b 708 158 918 -342 943 158 z m 699 -293 b 692 78 628 -301 624 74 b 699 -293 793 83 758 -292 z m 707 726 b 83 -282 489 389 300 76 b 224 -337 17 -392 126 -496 b 900 639 326 -196 757 440 b 707 726 956 779 801 874 z "},"&":{"ha":1017,"x_min":0,"x_max":0,"o":"m 956 -421 l 933 -421 l 956 -421 z m 818 -368 b 731 -324 788 -358 758 -343 b 951 11 808 -246 883 -136 b 778 31 978 71 806 78 b 610 -219 715 -74 660 -156 b 443 15 544 -149 489 -68 b 815 654 601 208 807 393 b 483 1022 824 869 643 1014 b 229 18 146 1038 -115 664 b 126 -385 150 -89 43 -254 b 619 -417 194 -490 403 -558 b 857 -468 693 -454 772 -474 b 956 -419 885 -465 954 -460 b 818 -368 956 -372 818 -368 z m 317 717 b 458 926 353 856 446 933 b 364 186 603 843 678 567 b 317 717 300 356 272 543 z m 335 -153 b 500 -335 382 -218 438 -282 b 335 -153 319 -485 263 -312 z "},"'":{"ha":288,"x_min":0,"x_max":0,"o":"m 53 1082 b 49 989 11 1040 32 1000 b 100 994 57 983 100 994 b 46 899 108 989 79 904 b 88 867 46 899 56 865 b 161 1056 118 869 194 978 b 53 1082 128 1133 53 1082 z "},"(":{"ha":492,"x_min":0,"x_max":0,"o":"m 469 1315 l 471 1315 l 469 1315 z m 325 1304 b 279 -622 15 1060 -150 -86 b 440 -621 310 -660 461 -662 b 465 1306 121 -17 215 828 b 325 1304 483 1340 344 1333 z "},")":{"ha":532,"x_min":0,"x_max":0,"o":"m 214 -651 z m 174 1276 b 33 1278 154 1304 15 1311 b 58 -650 283 800 378 -46 b 219 -650 38 -690 189 -687 b 174 1276 649 -114 483 1032 z "},"*":{"ha":379,"x_min":0,"x_max":0,"o":"m 210 992 b 174 1119 210 992 206 1113 b 119 990 140 1125 132 1047 b -6 965 119 990 1 1001 b 81 910 -12 928 81 910 b 81 804 81 910 51 813 b 153 894 111 794 153 894 b 249 801 153 894 215 782 b 229 903 281 821 229 903 b 322 960 229 903 342 924 b 210 992 303 997 210 992 z "},"+":{"ha":944,"x_min":0,"x_max":0,"o":"m 779 101 b 842 136 799 104 836 113 b 799 176 846 158 817 172 b 568 190 724 190 646 192 b 575 436 572 351 588 381 b 417 443 564 485 435 488 b 389 185 401 406 396 361 b 313 179 364 183 338 182 b 160 149 263 175 203 175 b 175 94 122 128 142 104 b 322 88 222 81 274 86 b 388 89 344 88 367 89 b 404 -204 388 67 388 -150 b 575 -201 419 -257 567 -261 b 568 93 585 -135 568 -131 b 779 101 639 93 710 92 z "},",":{"ha":288,"x_min":0,"x_max":0,"o":"m 68 -272 b 63 -354 3 -308 35 -344 b 144 -349 75 -360 144 -349 b 58 -435 157 -354 111 -429 b 124 -462 58 -435 74 -464 b 240 -296 174 -461 293 -364 b 68 -272 189 -226 68 -272 z "},"-":{"ha":813,"x_min":0,"x_max":0,"o":"m 386 289 b 225 274 333 286 279 282 b 72 228 175 267 115 267 b 88 140 35 193 54 156 b 235 129 135 118 186 128 b 389 138 286 131 338 136 b 692 151 489 143 592 132 b 754 207 711 156 749 169 b 711 269 758 242 729 264 b 386 289 606 303 494 293 z "},".":{"ha":294,"x_min":0,"x_max":0,"o":"m 140 -293 b 32 -351 81 -293 32 -319 b 140 -410 32 -383 81 -410 b 249 -351 200 -410 249 -383 b 140 -293 249 -319 200 -293 z "},"/":{"ha":689,"x_min":0,"x_max":0,"o":"m 483 1249 b 421 1004 444 1176 438 1083 b 369 772 404 926 386 850 b 260 301 335 615 297 458 b 144 -168 222 144 183 -12 b 88 -397 125 -244 106 -321 b 31 -644 68 -478 38 -562 b 207 -653 24 -701 189 -694 b 282 -407 242 -576 258 -487 b 343 -182 303 -332 324 -257 b 460 288 383 -26 422 131 b 569 758 497 444 535 601 b 621 990 588 835 604 913 b 647 1115 629 1032 639 1074 b 664 1240 657 1157 669 1197 b 483 1249 657 1301 507 1292 z "},":":{"ha":294,"x_min":0,"x_max":0,"o":"m 140 4 b 32 -54 81 4 32 -22 b 140 -112 32 -86 81 -112 b 249 -54 200 -112 249 -86 b 140 4 249 -22 200 4 z m 140 339 b 32 281 81 339 32 313 b 140 222 32 249 81 222 b 249 281 200 222 249 249 b 140 339 249 313 200 339 z "},";":{"ha":294,"x_min":0,"x_max":0,"o":"m 143 339 b 35 281 83 339 35 313 b 143 222 35 249 83 222 b 251 281 203 222 251 249 b 143 339 251 313 203 339 z m 75 -10 b 69 -92 10 -46 42 -82 b 151 -86 82 -97 151 -86 b 65 -172 164 -92 118 -167 b 131 -200 65 -172 81 -201 b 247 -33 181 -199 300 -101 b 75 -10 196 36 75 -10 z "},"<":{"ha":629,"x_min":0,"x_max":0,"o":"m 207 108 b 208 168 194 126 194 150 b 547 626 318 306 493 550 b 533 656 556 639 549 654 b 422 650 510 658 472 658 b 22 157 317 631 67 231 b 22 133 17 150 17 140 b 451 -433 71 51 365 -426 b 543 -437 488 -437 518 -437 b 574 -375 575 -437 593 -400 z "},"=":{"ha":697,"x_min":0,"x_max":0,"o":"m 96 217 b 226 229 140 207 183 222 b 346 242 267 236 306 240 b 600 236 429 246 518 219 b 636 325 636 243 692 289 b 488 356 590 354 536 353 b 336 356 436 358 386 358 b 188 338 286 351 236 346 b 50 285 143 329 83 328 b 96 217 17 244 75 222 z m 640 121 b 333 151 546 168 432 157 b 181 133 282 150 232 142 b 42 85 136 126 78 128 b 69 22 17 54 49 31 b 199 19 113 4 154 15 b 335 25 243 22 289 24 b 603 29 422 28 517 10 b 640 121 635 36 704 89 z "},">":{"ha":629,"x_min":0,"x_max":0,"o":"m 585 119 l 586 119 l 585 119 z m 71 622 b 71 622 71 622 71 622 b 71 622 71 622 71 622 z m 585 139 b 183 632 539 213 289 613 b 72 638 135 640 96 639 b 58 608 57 636 50 619 b 397 150 114 531 288 288 b 399 90 411 132 411 107 l 32 -393 b 63 -456 13 -418 31 -456 b 154 -453 88 -457 118 -456 b 585 115 242 -444 535 33 b 585 139 589 122 589 131 z "},"?":{"ha":1049,"x_min":0,"x_max":0,"o":"m 557 -454 b 557 -454 557 -454 557 -454 b 557 -454 557 -454 557 -454 z m 350 940 b 32 544 181 885 22 735 b 483 275 46 233 415 156 b 385 317 510 322 394 331 b 367 324 385 315 368 324 b 239 606 267 383 222 499 b 496 869 257 731 369 850 b 738 650 626 889 722 771 b 588 218 757 490 676 344 b 333 -253 489 81 339 -71 b 501 -260 332 -306 488 -303 b 867 256 592 14 725 53 b 932 792 972 407 1047 622 b 350 940 819 958 528 997 z m 558 -419 b 328 -446 488 -389 392 -404 b 318 -483 317 -454 311 -471 b 585 -456 363 -549 576 -497 b 558 -419 589 -437 574 -426 z "},"@":{"ha":1389,"x_min":0,"x_max":0,"o":"m 306 686 b 31 -40 64 535 -47 242 b 681 -468 110 -324 383 -525 b 810 -415 701 -464 824 -444 b 639 -399 797 -386 697 -367 b 328 563 274 -449 -35 182 b 1206 206 650 901 1219 704 b 1035 -167 1200 4 1101 -171 b 1047 382 981 -162 1067 64 b 818 397 1040 492 835 481 b 814 344 814 376 810 356 b 646 407 774 379 726 404 b 371 69 465 411 369 299 b 667 -226 372 -114 485 -242 b 828 -119 763 -218 828 -119 b 1029 -276 839 -258 989 -278 b 1322 -14 1172 -274 1276 -137 b 306 686 1544 569 896 1056 z m 828 4 b 682 -129 821 -65 749 -132 b 674 314 508 -124 519 297 b 815 243 753 322 811 278 b 828 4 824 189 829 72 z "},"A":{"ha":847,"x_min":0,"x_max":0,"o":"m 310 -297 b 307 -211 308 -275 307 -243 b 311 -37 307 -133 311 -47 b 328 -1 311 -25 318 -8 b 447 25 360 18 404 25 b 592 -22 521 25 592 3 l 592 -24 b 593 -90 593 -47 593 -69 b 586 -303 593 -165 588 -225 b 647 -358 590 -342 618 -358 b 742 -278 690 -358 739 -326 b 764 92 754 -185 764 -51 b 578 874 764 394 722 744 b 446 924 540 908 493 924 b 304 868 396 924 344 904 b 43 -15 158 733 43 343 b 68 -286 43 -110 51 -201 b 188 -383 82 -354 135 -383 b 310 -297 242 -383 297 -351 z m 411 694 b 475 736 425 724 450 736 b 544 701 503 736 529 722 b 607 217 593 618 607 386 b 606 131 607 185 607 156 b 596 117 606 122 601 117 b 590 118 594 117 592 118 b 513 121 578 119 549 121 b 343 117 450 121 369 118 b 322 133 329 117 322 117 l 322 161 b 411 694 322 297 343 561 z "},"B":{"ha":979,"x_min":0,"x_max":0,"o":"m 400 983 l 400 988 b 235 1057 400 1026 319 1057 b 50 946 150 1057 63 1028 b 28 340 36 738 28 533 b 119 -525 28 10 53 -290 b 250 -612 135 -592 193 -612 b 364 -582 304 -612 356 -594 b 388 -565 372 -569 381 -565 b 410 -571 394 -565 401 -568 b 549 -592 458 -585 504 -592 b 908 -276 756 -592 908 -450 b 899 -201 908 -251 906 -226 b 543 44 858 -43 704 13 b 922 586 790 111 922 356 b 685 1004 922 763 846 931 b 557 1033 638 1026 594 1033 b 400 983 471 1033 411 993 z m 710 -282 b 529 -507 710 -437 639 -507 l 510 -507 b 379 -429 451 -501 381 -487 b 365 -172 375 -343 365 -256 b 367 -128 365 -157 367 -143 l 367 -126 b 475 -56 367 -65 433 -56 b 500 -57 485 -56 494 -57 b 710 -282 653 -69 710 -196 z m 442 104 b 396 93 432 99 411 93 b 375 103 383 93 375 96 l 375 106 b 372 265 372 146 372 201 b 393 864 372 488 383 803 b 531 926 399 899 471 926 l 543 926 b 700 643 649 914 700 792 b 442 104 700 446 611 201 z "},"C":{"ha":1101,"x_min":0,"x_max":0,"o":"m 625 1054 l 613 1054 b 39 221 221 1054 39 638 b 550 -611 39 -192 218 -606 b 936 -294 843 -606 931 -382 l 936 -289 b 839 -203 936 -232 889 -203 b 733 -292 789 -203 739 -232 b 564 -489 722 -447 633 -489 l 560 -489 b 343 183 417 -486 343 -158 b 608 946 343 556 431 944 l 610 946 b 768 561 743 946 768 757 b 763 358 768 492 765 421 l 763 346 b 876 196 763 239 817 196 b 1036 339 947 196 1028 256 b 1043 460 1040 378 1043 419 b 625 1054 1043 749 929 1047 z "},"D":{"ha":1113,"x_min":0,"x_max":0,"o":"m 35 925 b 15 346 31 875 15 632 b 89 -500 15 58 31 -272 b 225 -596 106 -567 169 -596 b 319 -535 274 -596 318 -574 b 332 -507 322 -515 325 -507 b 340 -510 335 -507 338 -508 b 458 -525 382 -519 421 -525 b 1071 413 844 -525 1071 -28 b 608 1076 1071 763 928 1076 l 603 1076 b 389 999 465 1075 435 1032 b 213 1114 381 1063 297 1114 b 35 925 131 1114 47 1064 z m 393 863 b 546 928 393 863 447 928 l 563 928 b 789 331 706 917 789 633 b 406 -404 789 -24 675 -404 b 335 -318 368 -404 335 -356 b 393 863 335 35 385 724 z "},"E":{"ha":701,"x_min":0,"x_max":0,"o":"m 81 726 b 39 260 57 654 39 463 b 150 -356 39 -1 68 -283 b 274 -393 174 -376 213 -393 l 288 -393 b 558 -296 396 -390 558 -342 l 558 -292 b 542 -282 557 -285 550 -282 b 372 -319 507 -282 431 -319 b 300 -261 338 -319 308 -306 b 286 -72 296 -226 286 -139 b 296 6 286 -36 289 -7 b 501 67 317 33 501 4 b 439 96 500 90 474 96 b 335 90 406 96 365 90 b 292 106 311 90 294 93 b 283 256 286 128 283 185 b 304 690 283 410 294 628 b 335 746 304 711 317 742 b 503 765 378 760 439 765 b 611 760 539 765 575 764 b 644 786 633 760 644 771 b 640 804 644 792 643 797 b 399 875 617 846 511 875 b 81 726 264 875 117 833 z "},"F":{"ha":629,"x_min":0,"x_max":0,"o":"m 226 -371 b 286 29 253 -350 283 1 b 538 106 290 58 535 53 b 285 167 533 158 285 126 l 285 211 b 333 761 285 349 290 721 b 565 832 383 808 565 779 l 565 835 b 368 900 561 871 472 900 b 53 707 238 900 83 853 b 36 431 40 653 36 551 b 99 -317 36 147 64 -237 b 193 -383 119 -364 163 -383 b 226 -371 208 -383 221 -379 z "},"G":{"ha":961,"x_min":0,"x_max":0,"o":"m 743 276 b 765 275 750 276 758 275 b 890 378 811 275 858 290 b 926 597 913 436 926 515 b 503 1058 926 814 828 1058 l 497 1058 b 126 832 351 1058 221 1000 b 29 310 68 728 29 526 b 513 -531 29 -85 156 -531 l 535 -531 b 900 -85 758 -519 892 -293 l 900 -76 b 725 99 900 28 829 99 b 619 76 692 99 657 92 b 558 -15 589 64 558 22 b 664 -86 558 -51 586 -85 b 689 -153 681 -86 689 -114 b 529 -447 689 -254 632 -437 l 519 -447 b 296 200 365 -447 296 -129 b 521 914 296 551 375 914 l 522 914 b 642 638 632 913 642 781 l 642 538 b 743 276 642 403 650 282 z "},"H":{"ha":768,"x_min":0,"x_max":0,"o":"m 61 857 b 15 188 38 799 15 490 b 67 -396 15 -51 29 -287 b 115 -425 72 -414 93 -425 b 165 -392 135 -425 154 -415 b 199 -51 183 -354 196 -175 l 199 -42 b 211 -31 199 -36 200 -31 b 357 -24 260 -28 313 -24 b 403 -25 374 -24 389 -24 b 414 -24 407 -24 411 -24 b 426 -33 422 -24 426 -26 l 426 -36 b 458 -426 433 -183 428 -281 b 536 -483 465 -462 499 -483 b 625 -422 569 -483 606 -465 b 724 628 661 -340 724 258 b 700 892 724 749 717 846 b 576 969 681 946 629 969 b 450 893 521 969 464 942 b 426 392 431 828 426 590 b 429 99 426 233 429 99 b 421 86 429 92 429 86 l 418 86 b 322 92 386 90 354 92 b 219 86 289 92 254 90 b 210 85 215 86 213 85 b 196 104 199 85 196 90 b 222 757 201 207 222 567 b 219 849 222 796 222 828 b 138 910 211 886 175 910 b 61 857 107 910 76 894 z "},"I":{"ha":399,"x_min":0,"x_max":0,"o":"m 282 -371 b 344 718 297 -347 344 333 b 336 924 344 806 342 878 b 183 1026 328 981 254 1026 b 56 918 126 1026 72 997 b 40 599 44 836 40 724 b 108 -381 40 189 88 -351 b 190 -426 133 -412 163 -426 b 282 -371 226 -426 261 -404 z "},"J":{"ha":1010,"x_min":0,"x_max":0,"o":"m 140 890 b 318 881 199 886 260 881 b 424 806 413 881 414 875 b 460 231 436 717 460 475 b 281 -387 460 -75 422 -382 l 269 -387 b 167 -297 213 -387 171 -356 b 104 -174 161 -203 138 -174 b 94 -175 101 -174 97 -175 b 32 -294 56 -182 32 -232 b 300 -540 32 -401 104 -540 b 783 581 701 -540 783 144 b 761 917 783 744 772 874 l 761 918 b 915 983 761 933 847 969 b 944 1032 936 988 944 1010 b 926 1072 944 1050 938 1068 b 738 1093 881 1086 814 1093 b 142 1001 526 1093 243 1046 b 114 942 124 994 114 967 b 140 890 114 915 124 892 z "},"K":{"ha":925,"x_min":0,"x_max":0,"o":"m 382 958 b 242 1053 367 1017 306 1053 b 108 974 190 1053 138 1029 b 26 107 54 868 26 469 b 78 -517 26 -176 43 -436 b 211 -593 96 -560 160 -593 b 276 -557 242 -593 267 -582 b 326 -154 310 -474 325 -219 b 451 -89 326 -154 396 -147 b 583 -468 535 -228 569 -392 b 688 -546 593 -521 638 -546 b 844 -407 760 -546 843 -494 l 844 -401 b 624 61 844 -294 772 -92 b 889 897 776 238 889 603 l 889 933 b 819 996 888 975 853 996 b 761 943 789 996 761 978 l 761 939 b 343 -53 751 882 708 104 b 397 756 343 -51 397 444 b 382 958 397 843 393 917 z "},"L":{"ha":781,"x_min":0,"x_max":0,"o":"m 340 842 b 204 935 319 908 263 935 b 56 839 135 935 64 896 b 38 526 43 747 38 639 b 114 -303 38 189 83 -192 b 365 -417 133 -390 226 -417 b 663 -396 450 -417 550 -407 b 701 -361 683 -393 700 -383 b 346 -253 701 -287 461 -287 b 308 -210 319 -246 308 -233 b 310 -197 308 -206 310 -201 b 356 628 324 -76 356 353 b 340 842 356 726 351 806 z "},"M":{"ha":1389,"x_min":0,"x_max":0,"o":"m 942 844 b 732 110 899 682 792 369 b 479 885 682 164 481 885 b 286 1039 454 982 371 1039 b 93 868 206 1039 125 988 b 40 304 56 731 40 519 b 124 -444 40 -10 74 -332 b 242 -519 144 -490 194 -519 b 354 -425 289 -519 335 -492 b 417 567 379 -346 417 324 b 600 0 443 503 457 396 b 706 -82 628 -57 668 -82 b 803 6 749 -82 789 -49 b 1026 613 824 83 1008 532 b 999 50 1011 506 999 274 b 1038 -446 999 -160 1010 -362 b 1149 -507 1050 -482 1100 -507 b 1242 -442 1190 -507 1231 -489 b 1363 692 1265 -336 1363 353 b 1354 824 1363 746 1360 790 b 1150 1047 1329 971 1240 1047 b 942 844 1065 1047 979 981 z "},"N":{"ha":1161,"x_min":0,"x_max":0,"o":"m 838 910 b 764 -65 799 729 765 -64 b 381 875 628 294 522 593 b 238 990 338 961 285 990 b 97 889 168 990 108 928 b 38 258 58 750 38 507 b 113 -457 38 -14 63 -293 b 221 -561 129 -522 175 -561 b 319 -479 257 -561 294 -536 b 396 499 383 -328 390 460 b 849 -336 439 465 621 -311 l 860 -336 b 1119 672 1060 -336 1119 300 b 1106 913 1119 783 1114 872 b 969 1038 1089 993 1029 1038 b 838 910 914 1038 857 997 z "},"O":{"ha":774,"x_min":0,"x_max":0,"o":"m 326 -312 l 332 -312 b 733 338 601 -312 733 19 b 406 911 733 628 624 906 l 397 911 b 22 288 138 911 22 597 b 326 -312 22 -12 131 -310 z m 325 721 b 454 354 414 718 454 542 b 306 -99 454 136 400 -99 l 303 -99 b 161 258 204 -94 161 75 b 324 721 161 479 224 721 z "},"P":{"ha":907,"x_min":0,"x_max":0,"o":"m 307 -408 b 357 -46 340 -357 357 -79 b 508 -68 413 -61 463 -68 b 882 458 790 -68 882 208 b 801 821 882 611 849 756 b 554 953 729 921 635 953 b 388 890 472 953 406 921 b 256 997 379 953 319 997 b 107 868 197 997 136 961 b 51 175 75 767 51 467 b 108 -414 51 -65 68 -301 b 196 -465 124 -449 158 -465 b 307 -408 238 -465 282 -444 z m 390 776 b 514 833 438 815 478 833 b 675 478 622 833 675 664 b 451 0 675 251 597 0 b 358 31 422 0 392 10 b 390 776 358 32 376 764 z "},"Q":{"ha":1156,"x_min":0,"x_max":0,"o":"m 517 1107 b 24 201 211 1099 24 633 b 500 -532 24 -178 168 -532 l 510 -532 b 835 -303 664 -526 761 -457 b 979 -479 846 -312 954 -450 b 1049 -525 996 -499 1024 -525 b 1089 -487 1064 -525 1079 -515 b 1097 -436 1094 -472 1097 -456 b 951 -93 1097 -350 1043 -228 b 1006 350 986 47 1006 201 b 528 1107 1006 746 868 1107 z m 753 63 b 715 75 740 68 728 72 b 693 78 708 76 700 78 b 556 -54 621 78 556 -3 b 588 -97 556 -75 565 -92 b 692 -174 614 -104 663 -137 b 521 -357 639 -354 567 -357 b 358 150 407 -311 358 -92 b 610 881 358 493 457 881 l 613 881 b 806 382 729 876 806 629 b 753 63 806 267 789 153 z "},"R":{"ha":1046,"x_min":0,"x_max":0,"o":"m 464 994 b 268 1138 450 1085 358 1138 b 78 976 182 1138 96 1089 b 44 253 56 843 44 551 b 94 -581 44 -107 61 -475 b 256 -681 113 -637 189 -681 b 358 -596 306 -681 349 -657 b 381 -114 361 -574 378 -136 b 715 -422 438 -129 582 -151 b 826 -496 738 -468 781 -496 b 871 -486 842 -496 857 -492 b 958 -387 931 -461 958 -432 b 947 -332 958 -371 954 -353 b 722 -58 889 -153 728 -71 b 1015 446 886 19 996 181 b 1019 546 1018 481 1019 514 b 657 1060 1019 850 894 1031 b 626 1061 646 1061 636 1061 b 464 994 564 1061 504 1040 z m 560 922 b 606 929 576 928 592 929 b 793 532 738 929 793 731 b 788 425 793 496 792 460 b 507 -3 767 218 682 -3 b 418 14 479 -3 450 3 b 400 38 406 18 400 25 l 400 44 b 461 842 433 513 446 783 b 560 922 474 888 522 910 z "},"S":{"ha":768,"x_min":0,"x_max":0,"o":"m 439 940 l 425 940 b 3 336 197 940 3 640 b 51 89 3 253 18 168 b 532 -268 178 -204 528 -137 l 532 -269 b 418 -354 532 -315 460 -353 l 410 -354 b 197 -221 296 -354 307 -221 b 164 -225 188 -221 176 -222 b 118 -292 135 -231 118 -257 b 372 -482 118 -362 192 -468 l 390 -482 b 663 -265 514 -482 663 -387 b 221 363 660 10 290 -69 b 217 435 218 378 217 404 b 367 779 217 544 242 724 b 399 788 379 785 389 788 b 472 554 461 788 472 678 b 469 363 472 490 469 421 b 475 263 469 322 471 288 b 563 178 486 203 524 178 b 656 229 597 178 633 197 b 728 522 700 293 728 406 b 439 940 728 719 649 928 z "},"T":{"ha":1233,"x_min":0,"x_max":0,"o":"m 1160 932 b 557 1004 1097 968 828 1004 b 74 943 375 1004 193 988 b 28 878 43 932 28 906 b 89 804 28 847 47 817 b 442 740 114 797 340 740 b 424 231 429 558 424 386 b 506 -610 424 -247 472 -578 b 593 -662 518 -647 554 -662 b 694 -615 639 -662 688 -642 b 808 508 742 -453 808 106 b 799 743 808 596 806 676 b 1156 817 883 751 1093 790 b 1193 875 1179 828 1193 851 b 1160 932 1193 897 1183 918 z "},"U":{"ha":943,"x_min":0,"x_max":0,"o":"m 81 801 b 25 356 44 717 25 542 b 129 -244 25 118 57 -136 b 390 -379 189 -335 292 -379 b 629 -264 485 -379 578 -339 b 628 -314 629 -278 628 -294 b 686 -443 628 -372 636 -443 b 710 -439 693 -443 701 -442 b 764 -399 732 -432 750 -418 b 906 465 843 -283 906 147 b 868 776 906 601 894 715 b 751 831 854 810 800 831 b 672 778 710 831 672 815 l 672 776 b 674 725 674 761 674 744 b 628 -15 674 526 638 99 b 463 -286 619 -119 565 -285 l 458 -286 b 319 -39 350 -286 319 -183 b 364 565 319 136 364 374 b 319 807 364 663 353 747 b 197 857 301 839 249 857 b 81 801 144 857 94 839 z "},"V":{"ha":1046,"x_min":0,"x_max":0,"o":"m 679 992 b 389 -299 518 519 488 -299 b 197 1032 242 -299 225 896 b 122 1081 190 1067 158 1081 b 28 1026 79 1081 32 1058 b 17 806 21 978 17 901 b 414 -537 17 344 111 -537 l 421 -537 b 1006 940 781 -493 1003 639 l 1006 942 b 822 1093 1006 1036 910 1093 b 679 992 757 1093 696 1063 z "},"W":{"ha":1197,"x_min":0,"x_max":0,"o":"m 1144 749 b 1007 840 1136 810 1072 840 b 865 735 939 840 869 806 b 747 -168 864 699 865 -104 b 731 -172 742 -171 736 -172 b 647 -96 696 -172 656 -121 b 633 113 636 -61 633 22 b 638 397 633 218 638 335 b 588 463 638 443 613 463 b 533 411 563 463 536 443 b 474 -164 528 367 517 -82 b 369 -240 451 -206 417 -236 l 368 -240 b 319 -8 331 -240 319 -143 b 342 629 319 182 342 449 b 331 783 342 694 339 749 b 203 863 319 831 263 863 b 44 738 139 863 69 826 b 15 333 31 685 15 518 b 106 -268 15 107 38 -149 b 306 -376 146 -347 231 -376 b 421 -347 353 -376 396 -364 b 578 -160 497 -296 532 -242 b 744 -336 603 -219 675 -329 b 813 -346 768 -343 790 -346 b 1161 481 1076 -346 1161 108 b 1144 749 1161 579 1154 672 z "},"X":{"ha":932,"x_min":0,"x_max":0,"o":"m 897 892 b 853 950 897 919 879 947 l 847 950 b 813 906 828 950 821 933 b 526 107 728 607 592 226 b 324 974 343 714 369 919 b 231 1011 301 1000 267 1011 b 33 872 146 1011 44 949 b 29 810 31 853 29 832 b 331 -165 29 483 325 -149 b 335 -179 333 -171 335 -175 b 328 -196 335 -185 332 -189 b 124 -447 286 -267 172 -374 b 99 -496 106 -465 99 -482 b 192 -553 99 -532 149 -553 b 238 -540 210 -553 226 -549 b 424 -349 310 -486 372 -422 b 438 -337 429 -342 433 -337 b 449 -347 440 -337 444 -340 b 706 -553 539 -504 611 -550 b 750 -536 722 -553 739 -550 b 772 -479 764 -519 772 -500 b 771 -462 772 -474 772 -468 b 585 -81 751 -371 729 -460 b 582 -67 583 -76 582 -71 b 588 -47 582 -60 583 -54 b 897 889 714 172 897 667 z "},"Y":{"ha":883,"x_min":0,"x_max":0,"o":"m 293 72 b 321 15 314 69 321 49 b 290 -315 321 -56 290 -181 b 303 -450 290 -360 294 -406 b 425 -526 314 -501 368 -526 b 564 -454 482 -526 542 -501 b 589 -317 582 -415 589 -368 b 551 44 589 -192 551 -44 b 571 114 551 76 557 101 b 838 886 803 244 838 681 b 836 953 838 913 838 935 b 767 1019 833 999 801 1019 b 679 946 729 1019 686 993 b 447 214 669 889 667 218 l 446 214 b 289 800 342 214 289 528 b 294 947 289 851 290 901 l 294 957 b 192 1046 294 1018 247 1046 b 33 929 126 1046 51 1006 b 13 719 19 876 13 803 b 293 72 13 456 89 101 z "},"Z":{"ha":858,"x_min":0,"x_max":0,"o":"m 775 -231 b 572 -187 750 -199 667 -187 b 226 -217 419 -187 236 -215 b 799 865 292 -89 799 558 b 797 890 799 874 799 882 b 471 1104 781 1050 631 1104 b 72 975 297 1104 113 1040 b 39 860 51 942 39 900 b 199 704 39 779 86 704 b 225 706 207 704 215 704 b 614 775 346 718 504 744 b 572 682 606 740 590 711 b 51 -347 240 122 51 -168 b 56 -389 51 -362 53 -376 b 456 -557 79 -518 276 -557 b 753 -512 594 -557 724 -533 b 817 -358 792 -486 817 -424 b 775 -231 817 -312 804 -267 z "},"[":{"ha":440,"x_min":0,"x_max":0,"o":"m 317 -658 b 243 -494 254 -650 244 -543 b 240 279 243 -494 240 -117 b 256 1174 240 700 243 1142 b 285 1221 263 1190 271 1208 b 304 1232 293 1228 304 1232 l 294 1232 b 381 1278 321 1233 381 1254 b 356 1303 381 1286 374 1294 b 263 1322 326 1317 294 1322 b 118 1275 210 1322 157 1306 b 38 1094 63 1231 42 1164 l 38 925 b 39 -429 38 526 39 -428 l 39 -462 b 88 -668 39 -533 42 -611 b 267 -749 131 -719 199 -749 b 340 -736 292 -749 317 -744 b 383 -700 357 -729 383 -721 b 382 -693 383 -697 382 -696 b 317 -658 376 -668 336 -661 z "},"\\":{"ha":619,"x_min":0,"x_max":0,"o":"m 501 -417 b 438 -50 481 -294 458 -172 b 296 749 392 217 344 483 b 253 978 282 825 268 901 b 192 1203 239 1053 228 1133 b 110 1232 182 1222 146 1232 b 22 1189 68 1232 26 1218 b 21 1158 21 1179 21 1168 b 46 990 21 1101 35 1044 b 83 793 58 924 71 858 b 158 379 108 656 133 517 b 290 -381 203 126 246 -128 l 324 -564 b 365 -733 333 -619 339 -683 b 453 -767 376 -756 414 -767 b 549 -718 497 -767 544 -750 b 550 -697 550 -711 550 -704 b 529 -572 550 -656 538 -612 b 501 -417 521 -521 511 -468 z "},"]":{"ha":503,"x_min":0,"x_max":0,"o":"m 146 1313 b 74 1267 122 1308 74 1296 b 76 1253 74 1263 74 1258 b 215 1161 104 1190 172 1268 b 233 1046 229 1125 232 1085 b 225 -501 233 1044 233 -435 b 192 -607 221 -539 211 -575 b 129 -656 167 -647 149 -656 b 83 -650 114 -656 100 -650 b 51 -657 74 -650 63 -653 b 25 -687 35 -664 25 -676 b 53 -721 25 -700 35 -712 b 164 -746 89 -737 126 -746 b 415 -565 275 -746 382 -678 b 438 979 440 -479 433 -524 l 438 1024 b 390 1228 438 1094 433 1171 b 199 1317 346 1289 272 1317 b 146 1313 181 1317 163 1315 z "},"^":{"ha":526,"x_min":0,"x_max":0,"o":"m 293 647 b 129 522 217 647 138 550 l 129 521 b 158 511 129 513 143 511 b 206 517 176 511 199 514 b 296 615 217 522 258 615 l 297 615 b 390 513 325 614 390 513 b 410 508 390 513 397 508 b 444 517 418 508 431 510 b 449 526 447 518 449 521 b 293 647 449 557 378 646 z "},"_":{"ha":813,"x_min":0,"x_max":0,"o":"m 353 -362 b 192 -374 300 -365 246 -368 b 39 -410 142 -379 82 -379 b 18 -440 25 -419 18 -431 b 54 -476 18 -456 33 -468 b 125 -486 76 -485 100 -486 b 201 -483 150 -486 176 -485 b 356 -478 253 -482 304 -479 b 440 -476 383 -476 411 -476 l 481 -476 b 658 -467 540 -476 600 -475 b 721 -425 678 -464 715 -453 l 721 -419 b 678 -378 721 -396 694 -382 b 489 -360 617 -362 553 -360 b 353 -362 443 -360 397 -361 z "},"`":{"ha":1389,"x_min":0,"x_max":0,"o":"m 317 907 b 306 872 308 894 306 883 b 586 678 306 768 586 678 b 622 713 586 678 622 686 b 619 728 622 717 622 722 b 372 936 589 801 458 936 b 317 907 350 936 331 928 z "},"a":{"ha":799,"x_min":0,"x_max":0,"o":"m 547 -447 b 561 -449 551 -447 557 -449 b 693 -312 635 -449 674 -387 b 758 146 707 -254 758 -54 b 393 625 758 385 686 625 l 369 625 b 33 307 147 625 33 496 b 35 276 33 297 35 286 b 118 203 38 229 79 203 b 185 271 153 203 185 224 b 361 557 188 486 294 554 b 522 139 543 551 518 293 l 522 133 b 517 121 522 125 521 121 b 344 175 503 121 457 175 b 40 -144 147 175 40 -3 b 51 -217 40 -171 44 -194 b 317 -424 86 -326 153 -424 l 336 -424 b 497 -329 461 -417 489 -329 b 499 -331 497 -329 499 -329 b 503 -356 501 -339 503 -347 b 494 -414 503 -378 494 -397 b 547 -447 494 -432 504 -443 z m 350 -344 b 225 -151 246 -342 225 -236 b 233 -53 225 -104 232 -62 b 401 94 243 1 276 93 b 526 33 454 94 526 50 l 526 -36 b 514 -215 526 -67 525 -114 b 351 -344 511 -246 447 -344 z "},"b":{"ha":803,"x_min":0,"x_max":0,"o":"m 271 -486 b 286 -457 275 -465 279 -457 b 433 -499 303 -457 336 -499 l 436 -499 b 776 -101 649 -499 765 -281 b 778 -47 778 -87 778 -68 b 469 350 778 92 743 350 l 460 350 b 317 285 356 347 324 285 b 315 292 315 285 315 288 b 333 806 317 390 333 593 b 331 956 333 856 333 906 b 221 1058 328 1021 275 1058 b 108 956 172 1058 121 1026 b 46 218 78 794 46 526 b 108 -479 46 -1 63 -242 b 186 -540 117 -522 151 -540 b 271 -486 225 -540 264 -519 z m 310 176 b 435 246 311 203 372 246 b 510 219 461 246 488 238 b 563 -36 542 192 563 83 b 411 -407 563 -207 521 -400 l 403 -407 b 292 -367 361 -407 326 -387 b 285 -354 286 -362 285 -358 b 286 -339 285 -349 286 -343 l 286 -317 b 310 176 286 -290 289 -257 z "},"c":{"ha":600,"x_min":0,"x_max":0,"o":"m 435 276 b 433 257 435 272 433 264 b 483 211 433 236 440 211 l 496 211 b 568 281 571 217 567 264 b 571 344 571 301 571 322 b 328 703 571 517 497 703 l 325 703 b 29 243 119 700 29 476 b 332 -290 29 -17 142 -290 l 336 -290 b 557 -8 379 -290 532 -246 l 557 -4 b 500 33 557 19 529 33 b 435 -12 469 33 436 18 b 340 -185 428 -157 371 -185 b 238 222 275 -183 238 21 b 342 604 238 411 269 596 b 357 606 347 604 351 606 b 450 450 432 606 450 529 b 435 278 450 378 435 303 z "},"d":{"ha":857,"x_min":0,"x_max":0,"o":"m 21 -18 b 321 -353 22 -214 136 -353 b 353 -351 332 -353 342 -353 b 533 -231 460 -340 532 -231 b 565 -389 538 -279 544 -357 b 625 -415 575 -406 599 -415 b 694 -393 647 -415 672 -408 b 808 742 754 -356 808 336 b 790 1011 808 871 803 972 b 686 1079 776 1056 731 1079 b 586 1014 643 1079 601 1058 b 518 321 546 896 518 560 l 518 289 b 329 358 472 328 419 357 l 317 358 b 21 -12 124 358 21 233 z m 519 175 b 533 -49 528 125 533 26 b 532 -93 533 -65 532 -79 b 374 -242 525 -169 447 -242 l 369 -242 b 226 0 272 -239 226 -121 b 360 254 226 122 274 244 b 382 256 367 256 375 256 b 519 175 460 256 514 211 z "},"e":{"ha":624,"x_min":0,"x_max":0,"o":"m 567 296 b 576 372 572 315 576 342 b 397 642 576 469 536 603 b 304 656 364 651 332 656 b 28 117 82 656 33 374 l 28 90 b 311 -412 28 -100 110 -406 l 318 -412 b 589 -89 476 -412 589 -200 b 543 -22 589 -49 575 -22 b 500 -86 506 -24 504 -56 b 349 -294 485 -186 456 -294 b 333 -293 344 -294 339 -293 b 238 -15 268 -286 238 -231 b 242 151 238 32 239 88 b 567 296 306 161 533 167 z m 388 547 b 479 379 438 535 479 449 b 428 292 479 338 464 303 b 326 274 386 279 353 274 b 256 310 279 274 256 289 l 256 317 b 367 550 256 360 274 550 b 388 547 374 550 381 549 z "},"f":{"ha":688,"x_min":0,"x_max":0,"o":"m 256 -517 l 257 -517 b 379 157 353 -517 358 -142 l 379 158 b 538 236 379 206 446 231 b 599 268 579 236 599 251 b 539 306 599 286 578 304 b 388 347 388 311 388 319 b 399 676 388 457 390 567 b 690 810 406 765 690 714 l 690 814 b 444 883 689 838 571 883 b 235 822 371 883 293 868 b 142 308 168 769 146 504 b 22 271 97 304 24 294 b 142 219 22 250 93 231 b 256 -517 146 -86 171 -514 z "},"g":{"ha":649,"x_min":0,"x_max":0,"o":"m 369 490 b 368 472 368 485 368 478 b 369 443 368 461 369 450 b 368 438 369 439 368 438 l 367 438 b 208 511 325 485 267 511 b 1 264 111 511 15 438 b -3 179 -1 236 -3 207 b 28 -4 -3 117 6 56 b 188 -122 61 -92 125 -122 b 299 -92 229 -122 269 -110 b 356 -56 317 -82 333 -69 b 242 -497 351 -125 349 -482 b 219 -499 233 -499 226 -499 b 79 -262 71 -499 163 -262 l 71 -262 b 39 -293 53 -265 42 -276 l 39 -314 b 224 -578 39 -496 140 -578 l 228 -578 b 597 147 536 -576 597 -168 b 571 503 597 336 575 490 b 479 546 560 532 521 546 b 369 490 431 546 379 526 z m 244 -26 l 240 -26 b 138 192 175 -26 138 81 b 269 432 138 308 179 428 l 275 432 b 356 369 313 432 356 404 l 356 368 b 358 107 356 282 358 194 b 244 -26 358 53 322 -22 z "},"h":{"ha":779,"x_min":0,"x_max":0,"o":"m 274 957 b 151 1040 260 1013 206 1040 b 24 935 92 1040 31 1006 b 18 728 19 897 18 822 b 72 -322 18 392 40 -200 b 163 -387 85 -368 125 -387 b 244 -326 204 -387 243 -364 b 278 203 244 -307 260 176 b 410 279 310 253 354 279 b 426 278 415 279 421 278 b 531 10 507 269 531 149 b 503 -294 531 -94 518 -208 b 501 -306 503 -299 501 -301 b 599 -374 501 -350 549 -374 b 715 -296 650 -374 704 -349 b 743 -12 732 -197 743 -101 b 435 368 743 203 674 365 b 272 288 361 361 290 319 l 272 319 b 285 846 272 610 285 753 b 274 957 285 890 282 924 z "},"i":{"ha":372,"x_min":0,"x_max":0,"o":"m 63 429 b 61 418 63 426 61 422 b 58 194 60 344 58 268 b 90 -319 58 -47 68 -267 b 178 -362 111 -347 146 -362 b 246 -310 210 -362 239 -346 b 310 314 283 -181 310 135 b 306 415 310 357 308 393 b 176 494 299 469 238 494 b 63 429 119 494 64 471 z m 186 826 b 171 828 181 826 176 828 b 28 722 107 828 40 786 b 26 708 26 718 26 713 b 165 610 26 656 88 611 l 178 610 b 336 719 276 610 333 642 l 336 721 b 186 826 336 792 253 819 z "},"j":{"ha":881,"x_min":0,"x_max":0,"o":"m 603 626 b 604 622 603 625 603 624 b 603 626 604 624 604 625 z m 813 650 b 836 689 829 660 836 674 b 796 753 836 718 811 750 b 525 771 725 765 626 771 b 61 731 319 771 100 750 b 28 679 38 719 28 699 b 67 633 28 656 43 635 b 322 621 151 633 236 625 b 356 592 344 621 349 606 l 356 542 b 232 -337 356 353 344 -304 b 226 -339 231 -337 228 -339 b 78 -139 183 -339 97 -225 b 57 -119 75 -129 69 -119 l 54 -119 b 33 -140 42 -119 33 -128 l 33 -143 b 218 -446 38 -314 139 -407 b 325 -469 257 -461 293 -469 b 611 231 557 -469 611 -82 b 576 617 611 433 588 606 l 576 618 b 813 650 576 643 796 640 z m 589 971 l 589 972 b 438 1078 589 1043 504 1071 b 424 1079 433 1078 428 1079 b 279 974 358 1079 292 1038 b 278 960 278 969 278 964 b 417 861 278 907 339 863 l 429 861 b 589 971 528 861 585 893 z "},"k":{"ha":861,"x_min":0,"x_max":0,"o":"m 50 903 b 51 718 51 840 51 778 b 44 47 51 458 44 231 b 167 -419 44 -246 64 -419 l 176 -419 b 321 -60 357 -400 297 -87 b 442 78 360 -14 401 32 b 447 81 443 79 446 81 b 547 -215 478 81 499 -146 b 631 -264 569 -247 599 -264 b 689 -246 649 -264 669 -258 b 753 -69 736 -217 753 -149 b 636 257 753 78 690 257 l 633 257 b 799 438 696 319 747 375 b 814 474 808 450 814 463 b 761 521 814 501 789 521 b 732 514 751 521 742 519 b 333 143 663 504 454 297 b 422 968 333 176 422 968 b 424 979 422 972 424 976 b 231 1107 424 1051 325 1107 b 50 921 139 1107 50 1056 z "},"l":{"ha":372,"x_min":0,"x_max":0,"o":"m 15 931 b 61 -397 22 483 29 -137 b 174 -497 63 -465 118 -497 b 286 -400 229 -497 286 -464 b 329 860 296 -215 317 600 l 329 867 b 153 1058 329 997 238 1058 b 15 931 82 1058 15 1014 z "},"m":{"ha":1186,"x_min":0,"x_max":0,"o":"m 1111 -210 b 1157 169 1128 -136 1157 24 b 1051 468 1157 303 1133 425 b 954 492 1019 485 988 492 b 672 292 829 492 703 390 b 482 465 622 426 549 465 b 306 390 389 465 306 390 b 194 521 301 417 324 521 b 168 519 186 521 178 521 b 83 483 136 515 110 503 b 36 310 49 481 36 408 b 94 -249 36 94 94 -247 b 182 -326 107 -304 143 -326 b 283 -242 231 -326 281 -290 b 300 75 292 -111 286 -56 b 447 344 313 244 382 344 b 567 97 503 344 557 269 l 567 92 b 558 -215 567 51 558 -199 b 601 -246 558 -236 578 -246 b 697 -175 642 -246 696 -218 b 696 -107 697 -175 696 -151 b 699 6 696 -78 696 -40 b 726 239 703 94 711 188 b 879 383 738 278 819 383 b 943 251 914 383 940 350 b 947 142 946 222 947 185 b 928 -212 947 22 938 -132 b 926 -226 928 -217 926 -222 b 992 -282 926 -267 956 -282 b 1111 -210 1043 -282 1108 -247 z "},"n":{"ha":857,"x_min":0,"x_max":0,"o":"m 50 454 b 38 163 42 419 38 299 b 56 -276 38 -4 44 -196 b 172 -358 64 -331 118 -358 b 282 -285 224 -358 274 -333 b 338 242 311 -118 332 72 b 336 282 338 254 336 268 b 349 339 336 301 339 321 b 494 428 378 389 440 428 b 567 389 524 428 550 415 b 619 158 607 329 619 247 b 583 -265 619 7 583 -164 b 607 -353 583 -308 589 -339 b 653 -368 621 -362 636 -368 b 703 -354 669 -368 686 -362 b 824 72 767 -331 824 -129 b 644 479 824 254 776 436 b 529 501 606 496 567 501 b 333 456 436 501 358 463 b 335 472 335 461 335 467 b 194 578 335 532 265 578 b 50 454 132 578 69 543 z "},"o":{"ha":658,"x_min":0,"x_max":0,"o":"m 297 539 b 24 156 108 539 24 350 b 292 -269 24 -53 121 -269 l 307 -269 b 607 160 500 -256 607 -43 b 297 539 607 353 510 539 z m 281 -165 l 276 -165 b 178 133 210 -165 178 -14 b 267 413 178 274 207 410 l 271 413 b 386 165 354 413 386 294 b 281 -165 386 8 339 -165 z "},"p":{"ha":876,"x_min":0,"x_max":0,"o":"m 574 15 b 815 254 707 40 786 128 b 846 500 833 333 846 418 b 733 806 846 625 817 739 b 590 854 697 835 646 854 b 372 739 517 854 436 822 b 365 742 369 740 367 740 b 367 815 365 767 367 792 l 367 817 b 224 926 367 892 299 926 b 39 800 139 926 47 881 b 33 400 39 790 33 617 b 82 -412 33 118 42 -239 b 178 -479 93 -460 133 -479 b 290 -419 225 -479 275 -457 b 339 40 343 -304 324 -157 b 347 61 340 54 340 61 b 364 56 351 61 357 60 b 524 11 415 28 468 11 b 574 15 540 11 557 13 z m 347 167 b 363 574 357 301 361 438 b 542 768 364 619 481 758 l 546 768 b 614 526 593 768 614 657 b 551 150 614 386 590 222 b 468 107 536 118 503 107 b 347 165 410 107 347 138 z "},"q":{"ha":914,"x_min":0,"x_max":0,"o":"m 583 -44 b 613 -454 592 -124 594 -378 b 717 -537 626 -508 672 -537 b 815 -444 763 -537 807 -508 b 881 761 815 -443 881 540 b 879 799 881 779 881 792 b 744 900 872 871 810 900 b 594 811 672 900 597 864 b 585 701 592 775 589 739 b 338 811 497 779 413 811 b 92 654 226 811 138 742 b 33 364 51 579 33 472 b 110 10 33 233 60 99 b 332 -117 165 -87 249 -117 b 583 -44 460 -117 582 -46 z m 288 483 b 422 593 307 543 357 593 b 572 513 467 593 518 571 b 578 494 578 507 578 501 l 578 482 b 579 285 578 307 579 285 b 581 286 579 285 579 286 l 581 82 b 575 65 581 76 581 71 b 424 -21 533 17 486 -21 b 378 -14 410 -21 394 -18 b 274 285 293 14 274 158 b 288 483 274 390 288 483 z "},"r":{"ha":761,"x_min":0,"x_max":0,"o":"m 650 236 l 653 236 b 738 310 671 236 729 251 b 740 339 739 317 740 326 b 579 568 740 410 703 543 b 543 572 567 571 554 572 b 364 500 451 572 393 500 b 346 536 354 500 347 510 b 215 656 332 618 276 656 b 49 486 135 656 49 590 l 49 461 b 103 -289 49 364 57 -131 b 206 -349 113 -325 163 -349 b 271 -317 233 -349 258 -339 b 358 286 304 -268 342 8 b 510 447 361 351 442 447 b 556 429 526 447 542 442 b 619 267 614 375 608 326 b 650 236 622 250 635 236 z "},"s":{"ha":783,"x_min":0,"x_max":0,"o":"m 751 -151 b 226 318 751 72 260 74 b 224 375 225 333 224 353 b 367 617 224 472 250 610 l 374 617 b 494 403 467 617 494 513 b 485 283 494 363 490 321 b 483 271 485 279 483 275 b 574 200 483 226 526 200 b 694 282 621 200 672 225 b 728 422 717 329 728 376 b 422 704 728 572 613 701 l 410 704 b 46 389 186 704 50 563 l 46 379 b 549 -165 46 32 549 -12 b 543 -196 549 -175 547 -185 b 411 -265 526 -236 476 -265 l 407 -265 b 172 -124 315 -265 222 -212 b 111 -82 156 -94 133 -82 b 24 -186 67 -82 24 -131 b 33 -231 24 -200 26 -215 b 404 -403 82 -314 206 -401 l 408 -403 b 751 -151 589 -403 751 -308 z "},"t":{"ha":818,"x_min":0,"x_max":0,"o":"m 431 -432 b 778 -31 728 -432 778 -135 b 776 -10 778 -22 776 -15 b 688 50 772 26 731 50 b 597 -40 643 50 597 24 l 597 -53 b 446 -339 597 -157 550 -337 l 444 -339 b 358 36 378 -339 358 -160 b 394 518 358 267 386 518 b 611 553 451 519 586 536 b 625 576 621 560 625 568 b 588 619 625 596 603 614 b 413 639 568 625 439 635 b 393 654 399 639 393 642 l 393 660 b 419 893 401 721 419 815 b 410 974 419 924 417 951 b 313 1011 401 997 356 1011 b 225 971 269 1011 229 999 b 188 636 215 953 193 681 b 38 574 108 636 38 599 l 38 572 b 175 514 46 531 111 521 b 160 39 168 331 160 171 b 424 -432 160 -268 206 -432 z "},"u":{"ha":867,"x_min":0,"x_max":0,"o":"m 293 -374 b 329 -376 306 -375 317 -376 b 510 -326 393 -376 453 -354 b 529 -321 518 -322 525 -321 b 544 -343 538 -321 540 -328 b 618 -401 557 -386 586 -401 b 768 -314 678 -401 751 -349 b 818 115 807 -229 818 -37 b 810 315 818 210 814 289 b 685 424 797 392 740 424 b 556 321 622 424 560 385 b 525 -143 554 303 525 6 b 526 -193 525 -162 525 -179 l 526 -194 b 413 -271 526 -242 471 -271 b 286 -182 356 -271 299 -244 b 281 -57 282 -158 281 -112 b 294 263 281 60 288 214 l 294 282 b 194 407 294 371 258 393 b 149 413 178 411 163 413 b 22 160 46 413 22 310 b 28 0 22 111 25 57 b 293 -374 39 -176 115 -353 z "},"v":{"ha":721,"x_min":0,"x_max":0,"o":"m 500 471 b 293 -175 460 338 363 -168 l 290 -175 b 196 410 224 -175 200 14 b 103 451 193 436 146 451 b 29 414 65 451 29 440 l 29 386 b 193 -274 29 154 79 -182 b 319 -324 235 -307 278 -324 b 499 -179 392 -324 457 -275 b 681 353 540 -83 643 225 b 686 390 685 367 686 379 b 563 511 686 467 617 511 b 500 471 533 511 508 499 z "},"w":{"ha":1103,"x_min":0,"x_max":0,"o":"m 1050 424 l 1050 425 b 929 556 1050 513 990 556 b 804 425 867 556 804 511 l 804 424 b 806 367 804 408 806 389 b 685 -144 806 190 786 -144 b 540 249 601 -144 540 -93 b 547 467 540 311 543 383 b 476 511 546 494 511 511 b 406 458 442 511 406 494 l 406 399 b 288 -160 406 218 396 -160 l 285 -160 b 197 104 215 -156 197 -33 b 221 478 197 260 221 436 l 221 482 b 125 521 219 507 171 521 b 42 483 82 521 42 510 b 39 365 42 465 39 422 b 294 -326 39 135 65 -326 l 306 -326 b 493 -62 463 -317 475 -85 b 706 -307 510 -175 578 -303 l 715 -307 b 1053 321 1018 -307 1053 118 b 1050 424 1053 381 1050 421 z "},"x":{"ha":904,"x_min":0,"x_max":0,"o":"m 293 -28 l 310 -43 z m 33 -304 b 29 -321 31 -310 29 -315 b 101 -397 29 -353 64 -397 b 129 -389 111 -397 119 -394 b 386 -131 217 -333 358 -165 b 399 -121 390 -124 394 -121 b 413 -131 403 -121 407 -124 b 692 -399 422 -147 626 -378 b 714 -401 699 -400 706 -401 b 850 -318 771 -401 850 -354 b 844 -304 850 -314 847 -308 b 546 50 763 -194 554 31 b 536 74 539 58 536 65 b 543 96 536 81 538 88 b 738 558 658 288 738 557 b 740 582 739 567 740 575 b 671 656 740 629 701 656 b 635 628 653 656 638 647 b 457 172 618 524 488 225 b 231 546 283 475 274 499 b 143 589 203 576 172 589 b 28 463 82 589 28 529 b 40 407 28 444 32 425 b 304 -12 111 256 207 121 b 310 -26 307 -18 310 -21 b 306 -36 310 -29 308 -32 b 33 -304 258 -106 46 -282 z "},"y":{"ha":881,"x_min":0,"x_max":0,"o":"m 538 556 b 517 154 533 465 522 244 b 382 79 517 140 449 79 b 242 386 313 79 242 143 b 253 571 242 439 246 500 l 253 579 b 154 649 253 629 206 649 b 25 579 94 649 28 621 b 18 456 25 579 18 528 b 313 -24 18 281 56 -18 l 317 -24 b 500 51 399 -24 471 19 b 289 -422 500 -192 482 -411 l 276 -422 b 124 -267 199 -422 124 -372 b 142 -168 124 -237 129 -206 b 143 -158 143 -165 143 -161 b 100 -131 143 -140 122 -131 b 56 -150 82 -131 63 -136 b 40 -272 44 -193 40 -233 b 347 -561 40 -435 133 -557 l 356 -561 b 814 290 749 -561 814 -49 b 797 581 814 453 799 574 b 675 656 788 631 732 656 b 538 556 610 656 542 622 z "},"z":{"ha":779,"x_min":0,"x_max":0,"o":"m 632 685 b 418 750 601 735 514 750 b 93 713 282 750 129 719 b 58 668 68 708 58 690 b 111 529 58 613 110 529 b 157 507 117 513 133 507 b 449 572 232 507 379 572 b 486 557 468 572 481 568 b 488 549 486 554 488 551 b 483 536 488 544 486 540 b 46 -135 344 343 121 64 b 28 -217 33 -168 28 -194 b 160 -317 28 -304 111 -317 b 193 -315 179 -317 193 -315 b 704 -242 319 -311 469 -256 b 736 -215 728 -240 736 -231 b 599 -32 736 -158 608 -33 b 578 -31 592 -32 585 -31 b 213 -94 479 -31 304 -79 l 213 -93 b 636 667 213 51 636 542 b 632 685 636 674 635 681 z "},"{":{"ha":610,"x_min":0,"x_max":0,"o":"m 479 -631 b 338 -324 358 -618 338 -483 b 343 -69 338 -242 343 -151 b 311 151 343 17 338 97 b 254 231 297 181 276 206 b 236 261 244 242 236 249 b 238 268 236 263 238 265 b 269 308 242 283 260 296 b 351 474 310 356 335 413 b 372 754 369 536 372 640 b 371 896 372 800 371 849 b 449 1265 371 1085 378 1258 b 511 1303 463 1267 511 1282 b 499 1321 511 1308 507 1314 b 397 1353 468 1343 433 1353 b 225 1261 331 1353 263 1318 b 169 1021 181 1194 169 1113 b 181 724 169 928 181 826 b 38 292 181 574 157 422 b 26 264 29 283 26 274 b 72 190 26 239 53 213 b 126 97 97 163 114 132 b 450 -718 200 -115 39 -718 l 451 -718 b 546 -681 478 -718 538 -714 b 547 -674 547 -678 547 -675 b 479 -631 547 -646 501 -633 z "},"|":{"ha":343,"x_min":0,"x_max":0,"o":"m 94 1240 b 76 1118 79 1203 76 1161 b 79 1006 76 1079 79 1042 b 76 772 78 928 78 850 b 74 299 75 615 75 457 b 71 -167 72 143 71 -11 b 68 -408 69 -247 69 -328 b 67 -519 68 -444 67 -482 b 78 -650 67 -564 68 -607 b 165 -694 83 -681 124 -694 b 261 -647 208 -694 254 -678 b 274 -500 272 -599 274 -550 l 274 -406 b 275 -172 274 -328 274 -250 b 278 301 276 -14 276 143 b 281 767 279 457 281 613 b 282 1008 282 847 282 928 b 286 1128 283 1047 286 1088 b 269 1243 286 1168 283 1208 b 188 1275 261 1265 225 1275 b 94 1240 146 1275 103 1263 z "},"}":{"ha":590,"x_min":0,"x_max":0,"o":"m 336 1281 b 164 1372 299 1338 231 1372 b 61 1340 128 1372 92 1363 b 49 1322 53 1335 49 1328 b 113 1285 49 1301 99 1286 b 190 915 183 1278 190 1104 b 189 774 190 868 189 819 b 210 493 189 660 192 556 b 292 328 226 432 251 375 b 322 288 301 315 319 303 b 324 278 324 285 324 281 b 307 250 324 267 315 260 b 250 171 285 225 264 200 b 218 -50 224 117 218 36 b 224 -304 218 -132 224 -222 b 82 -611 224 -464 203 -599 b 13 -654 60 -614 13 -626 b 14 -661 13 -657 14 -658 b 110 -699 24 -694 83 -699 l 111 -699 b 435 117 522 -699 361 -96 b 489 210 446 151 464 182 b 535 285 507 232 535 258 b 524 311 535 293 532 303 b 381 743 404 442 381 593 b 392 1040 381 846 392 947 b 336 1281 392 1132 381 1214 z "},"~":{"ha":1389,"x_min":0,"x_max":0,"o":"m 813 544 b 793 508 807 532 801 518 b 776 492 788 501 782 497 b 740 515 768 500 750 508 b 704 543 728 525 717 535 b 539 601 656 579 599 601 b 514 600 531 601 522 601 b 369 514 457 593 393 571 b 363 485 365 503 363 493 b 449 433 363 447 407 433 b 469 435 456 433 463 435 b 522 469 488 438 522 447 l 522 475 b 515 488 522 479 519 483 b 542 529 517 501 531 526 b 561 514 542 525 557 515 b 590 490 571 507 581 499 b 714 421 628 461 667 433 b 775 413 735 415 754 413 b 960 528 853 413 926 451 b 963 538 961 531 963 535 b 886 571 963 560 924 571 b 813 544 853 571 821 563 z "},"‘":{"ha":368,"x_min":0,"x_max":0,"o":"m 286 881 b 310 932 304 899 310 917 b 289 975 310 951 299 968 b 282 976 288 976 285 976 b 238 968 267 976 238 968 b 236 972 236 969 236 971 b 293 1065 236 992 263 1060 b 253 1096 293 1065 283 1096 l 251 1096 b 169 951 225 1094 169 1019 b 178 908 169 936 172 922 b 236 865 193 875 215 865 b 286 881 263 865 286 881 z "},"’":{"ha":368,"x_min":0,"x_max":0,"o":"m 50 1079 b 25 1028 32 1061 25 1043 b 46 986 25 1008 36 993 b 54 985 47 985 50 985 b 97 992 69 985 97 992 b 99 986 99 992 99 989 b 43 896 99 967 72 901 b 83 864 43 896 53 864 l 85 864 b 167 1010 110 867 167 940 b 158 1053 167 1025 164 1039 b 101 1096 144 1086 122 1096 b 50 1079 74 1096 50 1079 z "},"“":{"ha":368,"x_min":0,"x_max":0,"o":"m 276 881 b 300 932 294 899 300 917 b 279 975 300 951 289 968 b 272 976 278 976 275 976 b 228 968 257 976 228 968 b 226 972 226 969 226 971 b 283 1065 226 992 253 1060 b 243 1096 283 1065 274 1096 l 242 1096 b 160 951 215 1094 160 1019 b 168 908 160 936 163 922 b 226 865 183 875 206 865 b 276 881 253 865 276 881 z m 115 890 b 144 939 136 906 144 924 b 131 971 144 953 138 965 b 114 975 128 974 121 975 b 86 972 101 975 86 972 l 86 975 b 146 1049 86 989 118 1049 b 114 1081 146 1049 142 1078 l 113 1081 b 22 950 88 1081 22 1014 b 25 929 22 943 24 936 b 79 882 35 892 60 882 b 115 890 99 882 115 890 z "},"”":{"ha":368,"x_min":0,"x_max":0,"o":"m 54 1079 b 29 1028 36 1061 29 1043 b 50 986 29 1008 40 993 b 58 985 51 985 54 985 b 101 992 74 985 101 992 b 103 986 103 992 103 989 b 47 896 103 967 76 901 b 88 864 47 896 57 864 l 89 864 b 171 1010 114 867 171 940 b 163 1053 171 1025 168 1039 b 106 1096 149 1086 126 1096 b 54 1079 78 1096 54 1079 z m 214 1069 b 186 1022 193 1054 186 1036 b 200 989 186 1007 193 994 b 218 986 203 986 210 986 b 244 988 231 986 244 988 l 244 985 b 185 911 244 971 213 913 b 217 879 185 911 189 882 l 218 879 b 307 1010 243 879 307 944 b 304 1032 307 1017 306 1025 b 250 1078 294 1068 271 1078 b 214 1069 231 1078 214 1069 z "}}}
